<mxfile host="app.diagrams.net" modified="2022-10-22T13:43:36.971Z" agent="5.0 (Windows NT 10.0; Win64; x64) AppleWebKit/537.36 (KHTML, like Gecko) Chrome/106.0.0.0 Safari/537.36" etag="2bjb4Ph7KribUaR3wC-E" version="20.4.2" type="github">
  <diagram id="C5RBs43oDa-KdzZeNtuy" name="Page-1">
    <mxGraphModel dx="1221" dy="672" grid="1" gridSize="10" guides="1" tooltips="1" connect="1" arrows="1" fold="1" page="1" pageScale="1" pageWidth="827" pageHeight="1169" math="0" shadow="0">
      <root>
        <mxCell id="WIyWlLk6GJQsqaUBKTNV-0" />
        <mxCell id="WIyWlLk6GJQsqaUBKTNV-1" parent="WIyWlLk6GJQsqaUBKTNV-0" />
        <mxCell id="yysBNInqc31UL308aAiy-0" value="Node" style="swimlane;fontStyle=2;align=center;verticalAlign=top;childLayout=stackLayout;horizontal=1;startSize=26;horizontalStack=0;resizeParent=1;resizeLast=0;collapsible=1;marginBottom=0;rounded=0;shadow=0;strokeWidth=1;fillColor=#1ba1e2;strokeColor=#006EAF;fontColor=#ffffff;" vertex="1" parent="WIyWlLk6GJQsqaUBKTNV-1">
          <mxGeometry x="330" y="75" width="190" height="180" as="geometry">
            <mxRectangle x="230" y="140" width="160" height="26" as="alternateBounds" />
          </mxGeometry>
        </mxCell>
        <mxCell id="yysBNInqc31UL308aAiy-1" value="-value : int&#xa;-next : Node&#xa;-prev : Node&#xa;" style="text;align=left;verticalAlign=top;spacingLeft=4;spacingRight=4;overflow=hidden;rotatable=0;points=[[0,0.5],[1,0.5]];portConstraint=eastwest;" vertex="1" parent="yysBNInqc31UL308aAiy-0">
          <mxGeometry y="26" width="190" height="44" as="geometry" />
        </mxCell>
        <mxCell id="yysBNInqc31UL308aAiy-2" value="" style="line;html=1;strokeWidth=1;align=left;verticalAlign=middle;spacingTop=-1;spacingLeft=3;spacingRight=3;rotatable=0;labelPosition=right;points=[];portConstraint=eastwest;" vertex="1" parent="yysBNInqc31UL308aAiy-0">
          <mxGeometry y="70" width="190" height="8" as="geometry" />
        </mxCell>
        <mxCell id="yysBNInqc31UL308aAiy-3" value="+constructor(value : int)&#xa;+setNext(next : Node) : void&#xa;+getNext() : Node&#xa;+setPrev(prev : Node) : void&#xa;+getPrev() : Node&#xa;+getValue : int&#xa;&#xa;" style="text;align=left;verticalAlign=top;spacingLeft=4;spacingRight=4;overflow=hidden;rotatable=0;points=[[0,0.5],[1,0.5]];portConstraint=eastwest;" vertex="1" parent="yysBNInqc31UL308aAiy-0">
          <mxGeometry y="78" width="190" height="90" as="geometry" />
        </mxCell>
        <mxCell id="yysBNInqc31UL308aAiy-4" value="LinkedList" style="swimlane;fontStyle=2;align=center;verticalAlign=top;childLayout=stackLayout;horizontal=1;startSize=26;horizontalStack=0;resizeParent=1;resizeParentMax=0;resizeLast=0;collapsible=1;marginBottom=0;labelBackgroundColor=none;fillStyle=solid;fillColor=#1ba1e2;swimlaneFillColor=none;fontColor=#ffffff;strokeColor=#006EAF;" vertex="1" parent="WIyWlLk6GJQsqaUBKTNV-1">
          <mxGeometry x="90" y="70" width="200" height="190" as="geometry" />
        </mxCell>
        <mxCell id="yysBNInqc31UL308aAiy-5" value="- first: Node&#xa;- last : Node&#xa;- length: int" style="text;strokeColor=none;fillColor=default;align=left;verticalAlign=top;spacingLeft=4;spacingRight=4;overflow=hidden;rotatable=0;points=[[0,0.5],[1,0.5]];portConstraint=eastwest;" vertex="1" parent="yysBNInqc31UL308aAiy-4">
          <mxGeometry y="26" width="200" height="44" as="geometry" />
        </mxCell>
        <mxCell id="yysBNInqc31UL308aAiy-6" value="" style="line;strokeWidth=1;fillColor=none;align=left;verticalAlign=middle;spacingTop=-1;spacingLeft=3;spacingRight=3;rotatable=0;labelPosition=right;points=[];portConstraint=eastwest;strokeColor=inherit;" vertex="1" parent="yysBNInqc31UL308aAiy-4">
          <mxGeometry y="70" width="200" height="8" as="geometry" />
        </mxCell>
        <mxCell id="yysBNInqc31UL308aAiy-7" value="+ showAll(): void&#xa;+ constructor()&#xa;+ add(value:int): void&#xa;+ searchNode(index:int): Node&#xa;+ insert(value:int, index:int):void&#xa;+ remove(index:int): void&#xa;+ swap(index1:int, index2:int): void" style="text;strokeColor=none;fillColor=#FFFFFF;align=left;verticalAlign=top;spacingLeft=4;spacingRight=4;overflow=hidden;rotatable=0;points=[[0,0.5],[1,0.5]];portConstraint=eastwest;" vertex="1" parent="yysBNInqc31UL308aAiy-4">
          <mxGeometry y="78" width="200" height="112" as="geometry" />
        </mxCell>
        <mxCell id="yysBNInqc31UL308aAiy-8" value="&lt;b&gt;&lt;font style=&quot;font-size: 22px;&quot;&gt;Class Diagrams&lt;/font&gt;&lt;/b&gt;" style="text;html=1;resizable=0;autosize=1;align=center;verticalAlign=middle;points=[];fillColor=none;strokeColor=none;rounded=0;" vertex="1" parent="WIyWlLk6GJQsqaUBKTNV-1">
          <mxGeometry x="300" width="190" height="40" as="geometry" />
        </mxCell>
        <mxCell id="yysBNInqc31UL308aAiy-9" value="Main" style="swimlane;fontStyle=2;align=center;verticalAlign=top;childLayout=stackLayout;horizontal=1;startSize=26;horizontalStack=0;resizeParent=1;resizeParentMax=0;resizeLast=0;collapsible=1;marginBottom=0;fillColor=#1ba1e2;fontColor=#ffffff;strokeColor=#006EAF;" vertex="1" parent="WIyWlLk6GJQsqaUBKTNV-1">
          <mxGeometry x="550" y="110" width="200" height="52" as="geometry" />
        </mxCell>
        <mxCell id="yysBNInqc31UL308aAiy-10" value="+ main(): static void" style="text;strokeColor=none;fillColor=default;align=left;verticalAlign=top;spacingLeft=4;spacingRight=4;overflow=hidden;rotatable=0;points=[[0,0.5],[1,0.5]];portConstraint=eastwest;" vertex="1" parent="yysBNInqc31UL308aAiy-9">
          <mxGeometry y="26" width="200" height="26" as="geometry" />
        </mxCell>
        <mxCell id="yysBNInqc31UL308aAiy-11" style="edgeStyle=orthogonalEdgeStyle;rounded=0;orthogonalLoop=1;jettySize=auto;html=1;exitX=0.5;exitY=1;exitDx=0;exitDy=0;exitPerimeter=0;entryX=0.5;entryY=0;entryDx=0;entryDy=0;fontSize=15;" edge="1" parent="WIyWlLk6GJQsqaUBKTNV-1" source="yysBNInqc31UL308aAiy-12" target="yysBNInqc31UL308aAiy-19">
          <mxGeometry relative="1" as="geometry" />
        </mxCell>
        <mxCell id="yysBNInqc31UL308aAiy-12" value="&lt;font style=&quot;font-size: 15px;&quot;&gt;START&lt;/font&gt;" style="strokeWidth=2;html=1;shape=mxgraph.flowchart.terminator;whiteSpace=wrap;fontSize=22;" vertex="1" parent="WIyWlLk6GJQsqaUBKTNV-1">
          <mxGeometry x="369.25" y="350" width="117.5" height="50" as="geometry" />
        </mxCell>
        <mxCell id="yysBNInqc31UL308aAiy-13" style="edgeStyle=orthogonalEdgeStyle;rounded=0;orthogonalLoop=1;jettySize=auto;html=1;exitX=0.5;exitY=1;exitDx=0;exitDy=0;fontSize=15;" edge="1" parent="WIyWlLk6GJQsqaUBKTNV-1" source="yysBNInqc31UL308aAiy-14" target="yysBNInqc31UL308aAiy-17">
          <mxGeometry relative="1" as="geometry" />
        </mxCell>
        <mxCell id="yysBNInqc31UL308aAiy-14" value="&lt;font style=&quot;font-size: 15px;&quot;&gt;Set add, insert, &lt;br&gt;swap, remove&lt;/font&gt;" style="shape=parallelogram;html=1;strokeWidth=2;perimeter=parallelogramPerimeter;whiteSpace=wrap;rounded=1;arcSize=12;size=0.23;fontSize=22;" vertex="1" parent="WIyWlLk6GJQsqaUBKTNV-1">
          <mxGeometry x="343" y="530" width="170" height="60" as="geometry" />
        </mxCell>
        <mxCell id="yysBNInqc31UL308aAiy-15" value="True" style="edgeStyle=orthogonalEdgeStyle;rounded=0;orthogonalLoop=1;jettySize=auto;html=1;exitX=1;exitY=0.5;exitDx=0;exitDy=0;exitPerimeter=0;entryX=0;entryY=0.5;entryDx=0;entryDy=0;entryPerimeter=0;fontSize=15;" edge="1" parent="WIyWlLk6GJQsqaUBKTNV-1" source="yysBNInqc31UL308aAiy-17" target="yysBNInqc31UL308aAiy-22">
          <mxGeometry x="0.1429" y="20" relative="1" as="geometry">
            <mxPoint as="offset" />
          </mxGeometry>
        </mxCell>
        <mxCell id="yysBNInqc31UL308aAiy-16" value="False" style="edgeStyle=orthogonalEdgeStyle;rounded=0;orthogonalLoop=1;jettySize=auto;html=1;exitX=0.5;exitY=1;exitDx=0;exitDy=0;exitPerimeter=0;entryX=0.5;entryY=0;entryDx=0;entryDy=0;entryPerimeter=0;fontSize=15;" edge="1" parent="WIyWlLk6GJQsqaUBKTNV-1" source="yysBNInqc31UL308aAiy-17" target="yysBNInqc31UL308aAiy-36">
          <mxGeometry y="-30" relative="1" as="geometry">
            <mxPoint as="offset" />
          </mxGeometry>
        </mxCell>
        <mxCell id="yysBNInqc31UL308aAiy-17" value="if set add" style="strokeWidth=2;html=1;shape=mxgraph.flowchart.decision;whiteSpace=wrap;fontSize=15;" vertex="1" parent="WIyWlLk6GJQsqaUBKTNV-1">
          <mxGeometry x="378" y="610" width="100" height="100" as="geometry" />
        </mxCell>
        <mxCell id="yysBNInqc31UL308aAiy-18" style="edgeStyle=orthogonalEdgeStyle;rounded=0;orthogonalLoop=1;jettySize=auto;html=1;exitX=0.5;exitY=1;exitDx=0;exitDy=0;entryX=0.5;entryY=0;entryDx=0;entryDy=0;fontSize=15;" edge="1" parent="WIyWlLk6GJQsqaUBKTNV-1" source="yysBNInqc31UL308aAiy-19" target="yysBNInqc31UL308aAiy-14">
          <mxGeometry relative="1" as="geometry" />
        </mxCell>
        <mxCell id="yysBNInqc31UL308aAiy-19" value="&lt;font style=&quot;font-size: 15px;&quot;&gt;Node first;&lt;br&gt;int length, value, index, index1, index2;&lt;br&gt;&lt;/font&gt;" style="rounded=1;whiteSpace=wrap;html=1;absoluteArcSize=1;arcSize=14;strokeWidth=2;fontSize=22;" vertex="1" parent="WIyWlLk6GJQsqaUBKTNV-1">
          <mxGeometry x="348" y="430" width="160" height="80" as="geometry" />
        </mxCell>
        <mxCell id="yysBNInqc31UL308aAiy-20" value="False" style="edgeStyle=orthogonalEdgeStyle;rounded=0;orthogonalLoop=1;jettySize=auto;html=1;exitX=0.5;exitY=1;exitDx=0;exitDy=0;exitPerimeter=0;entryX=0.5;entryY=0;entryDx=0;entryDy=0;fontSize=15;" edge="1" parent="WIyWlLk6GJQsqaUBKTNV-1" source="yysBNInqc31UL308aAiy-22" target="yysBNInqc31UL308aAiy-24">
          <mxGeometry y="20" relative="1" as="geometry">
            <mxPoint as="offset" />
          </mxGeometry>
        </mxCell>
        <mxCell id="yysBNInqc31UL308aAiy-21" value="True" style="edgeStyle=orthogonalEdgeStyle;rounded=0;orthogonalLoop=1;jettySize=auto;html=1;exitX=1;exitY=0.5;exitDx=0;exitDy=0;exitPerimeter=0;entryX=0;entryY=0.5;entryDx=0;entryDy=0;fontSize=15;" edge="1" parent="WIyWlLk6GJQsqaUBKTNV-1" source="yysBNInqc31UL308aAiy-22" target="yysBNInqc31UL308aAiy-26">
          <mxGeometry x="-0.3333" y="20" relative="1" as="geometry">
            <mxPoint as="offset" />
          </mxGeometry>
        </mxCell>
        <mxCell id="yysBNInqc31UL308aAiy-22" value="if first ==&lt;br&gt;null" style="strokeWidth=2;html=1;shape=mxgraph.flowchart.decision;whiteSpace=wrap;fontSize=15;" vertex="1" parent="WIyWlLk6GJQsqaUBKTNV-1">
          <mxGeometry x="555" y="610" width="100" height="100" as="geometry" />
        </mxCell>
        <mxCell id="yysBNInqc31UL308aAiy-23" style="edgeStyle=orthogonalEdgeStyle;rounded=0;orthogonalLoop=1;jettySize=auto;html=1;exitX=0.5;exitY=1;exitDx=0;exitDy=0;entryX=0.5;entryY=0;entryDx=0;entryDy=0;fontSize=15;" edge="1" parent="WIyWlLk6GJQsqaUBKTNV-1" source="yysBNInqc31UL308aAiy-24" target="yysBNInqc31UL308aAiy-51">
          <mxGeometry relative="1" as="geometry" />
        </mxCell>
        <mxCell id="yysBNInqc31UL308aAiy-24" value="&lt;font style=&quot;font-size: 15px;&quot;&gt;Node temp;&lt;br&gt;temp = first;&lt;br&gt;&lt;/font&gt;" style="rounded=1;whiteSpace=wrap;html=1;absoluteArcSize=1;arcSize=14;strokeWidth=2;fontSize=22;" vertex="1" parent="WIyWlLk6GJQsqaUBKTNV-1">
          <mxGeometry x="550" y="735" width="110" height="70" as="geometry" />
        </mxCell>
        <mxCell id="yysBNInqc31UL308aAiy-25" style="edgeStyle=orthogonalEdgeStyle;rounded=0;orthogonalLoop=1;jettySize=auto;html=1;exitX=0.5;exitY=1;exitDx=0;exitDy=0;entryX=1;entryY=0.5;entryDx=0;entryDy=0;fontSize=15;" edge="1" parent="WIyWlLk6GJQsqaUBKTNV-1" source="yysBNInqc31UL308aAiy-26" target="yysBNInqc31UL308aAiy-51">
          <mxGeometry relative="1" as="geometry" />
        </mxCell>
        <mxCell id="yysBNInqc31UL308aAiy-26" value="&lt;font style=&quot;font-size: 15px;&quot;&gt;first = value&lt;br&gt;&lt;/font&gt;" style="rounded=1;whiteSpace=wrap;html=1;absoluteArcSize=1;arcSize=14;strokeWidth=2;fontSize=22;" vertex="1" parent="WIyWlLk6GJQsqaUBKTNV-1">
          <mxGeometry x="700" y="625" width="110" height="70" as="geometry" />
        </mxCell>
        <mxCell id="yysBNInqc31UL308aAiy-27" value="True" style="edgeStyle=orthogonalEdgeStyle;rounded=0;orthogonalLoop=1;jettySize=auto;html=1;exitX=1;exitY=0.5;exitDx=0;exitDy=0;exitPerimeter=0;entryX=0;entryY=0.5;entryDx=0;entryDy=0;fontSize=15;" edge="1" parent="WIyWlLk6GJQsqaUBKTNV-1" source="yysBNInqc31UL308aAiy-29" target="yysBNInqc31UL308aAiy-31">
          <mxGeometry y="15" relative="1" as="geometry">
            <mxPoint as="offset" />
          </mxGeometry>
        </mxCell>
        <mxCell id="yysBNInqc31UL308aAiy-28" value="False" style="edgeStyle=orthogonalEdgeStyle;rounded=0;orthogonalLoop=1;jettySize=auto;html=1;exitX=0.5;exitY=1;exitDx=0;exitDy=0;exitPerimeter=0;entryX=0.5;entryY=0;entryDx=0;entryDy=0;fontSize=15;" edge="1" parent="WIyWlLk6GJQsqaUBKTNV-1" source="yysBNInqc31UL308aAiy-29" target="yysBNInqc31UL308aAiy-33">
          <mxGeometry x="-0.3333" y="30" relative="1" as="geometry">
            <mxPoint as="offset" />
          </mxGeometry>
        </mxCell>
        <mxCell id="yysBNInqc31UL308aAiy-29" value="&lt;br&gt;while temp.getNext()&lt;br&gt;==&amp;nbsp; null" style="strokeWidth=2;html=1;shape=mxgraph.flowchart.decision;whiteSpace=wrap;fontSize=15;" vertex="1" parent="WIyWlLk6GJQsqaUBKTNV-1">
          <mxGeometry x="525" y="940" width="160" height="90" as="geometry" />
        </mxCell>
        <mxCell id="yysBNInqc31UL308aAiy-30" style="edgeStyle=orthogonalEdgeStyle;rounded=0;orthogonalLoop=1;jettySize=auto;html=1;exitX=0.5;exitY=0;exitDx=0;exitDy=0;entryX=0.5;entryY=0;entryDx=0;entryDy=0;entryPerimeter=0;fontSize=15;" edge="1" parent="WIyWlLk6GJQsqaUBKTNV-1" source="yysBNInqc31UL308aAiy-31" target="yysBNInqc31UL308aAiy-29">
          <mxGeometry relative="1" as="geometry" />
        </mxCell>
        <mxCell id="yysBNInqc31UL308aAiy-31" value="&lt;font style=&quot;font-size: 15px;&quot;&gt;temp.getNext()&lt;br&gt;&lt;/font&gt;" style="rounded=1;whiteSpace=wrap;html=1;absoluteArcSize=1;arcSize=14;strokeWidth=2;fontSize=22;" vertex="1" parent="WIyWlLk6GJQsqaUBKTNV-1">
          <mxGeometry x="730" y="950" width="110" height="70" as="geometry" />
        </mxCell>
        <mxCell id="yysBNInqc31UL308aAiy-32" style="edgeStyle=orthogonalEdgeStyle;rounded=0;orthogonalLoop=1;jettySize=auto;html=1;exitX=0.5;exitY=1;exitDx=0;exitDy=0;entryX=0.5;entryY=0;entryDx=0;entryDy=0;fontSize=15;" edge="1" parent="WIyWlLk6GJQsqaUBKTNV-1" source="yysBNInqc31UL308aAiy-33" target="yysBNInqc31UL308aAiy-75">
          <mxGeometry relative="1" as="geometry">
            <Array as="points">
              <mxPoint x="605" y="1170" />
              <mxPoint x="830" y="1170" />
              <mxPoint x="830" y="1640" />
              <mxPoint x="428" y="1640" />
            </Array>
          </mxGeometry>
        </mxCell>
        <mxCell id="yysBNInqc31UL308aAiy-33" value="&lt;font style=&quot;font-size: 15px;&quot;&gt;temp.setNext&lt;br&gt;(Value)&lt;br&gt;&lt;/font&gt;" style="rounded=1;whiteSpace=wrap;html=1;absoluteArcSize=1;arcSize=14;strokeWidth=2;fontSize=22;" vertex="1" parent="WIyWlLk6GJQsqaUBKTNV-1">
          <mxGeometry x="550" y="1060" width="110" height="70" as="geometry" />
        </mxCell>
        <mxCell id="yysBNInqc31UL308aAiy-34" value="True" style="edgeStyle=orthogonalEdgeStyle;rounded=0;orthogonalLoop=1;jettySize=auto;html=1;exitX=0;exitY=0.5;exitDx=0;exitDy=0;exitPerimeter=0;entryX=1;entryY=0.5;entryDx=0;entryDy=0;fontSize=15;" edge="1" parent="WIyWlLk6GJQsqaUBKTNV-1" source="yysBNInqc31UL308aAiy-36" target="yysBNInqc31UL308aAiy-38">
          <mxGeometry x="-0.5" y="20" relative="1" as="geometry">
            <mxPoint as="offset" />
            <Array as="points">
              <mxPoint x="350" y="870" />
              <mxPoint x="350" y="737" />
            </Array>
          </mxGeometry>
        </mxCell>
        <mxCell id="yysBNInqc31UL308aAiy-35" value="False" style="edgeStyle=orthogonalEdgeStyle;rounded=0;orthogonalLoop=1;jettySize=auto;html=1;exitX=0.5;exitY=1;exitDx=0;exitDy=0;exitPerimeter=0;entryX=0.5;entryY=0;entryDx=0;entryDy=0;entryPerimeter=0;fontSize=15;" edge="1" parent="WIyWlLk6GJQsqaUBKTNV-1" source="yysBNInqc31UL308aAiy-36" target="yysBNInqc31UL308aAiy-49">
          <mxGeometry y="-28" relative="1" as="geometry">
            <mxPoint as="offset" />
          </mxGeometry>
        </mxCell>
        <mxCell id="yysBNInqc31UL308aAiy-36" value="if set insert" style="strokeWidth=2;html=1;shape=mxgraph.flowchart.decision;whiteSpace=wrap;fontSize=15;" vertex="1" parent="WIyWlLk6GJQsqaUBKTNV-1">
          <mxGeometry x="378" y="820" width="100" height="100" as="geometry" />
        </mxCell>
        <mxCell id="yysBNInqc31UL308aAiy-37" style="edgeStyle=orthogonalEdgeStyle;rounded=0;orthogonalLoop=1;jettySize=auto;html=1;exitX=0;exitY=0.5;exitDx=0;exitDy=0;entryX=1;entryY=0.5;entryDx=0;entryDy=0;entryPerimeter=0;fontSize=15;" edge="1" parent="WIyWlLk6GJQsqaUBKTNV-1" source="yysBNInqc31UL308aAiy-38" target="yysBNInqc31UL308aAiy-41">
          <mxGeometry relative="1" as="geometry" />
        </mxCell>
        <mxCell id="yysBNInqc31UL308aAiy-38" value="&lt;font style=&quot;font-size: 15px;&quot;&gt;Node temp;&lt;br&gt;temp = value;&lt;br&gt;&lt;/font&gt;" style="rounded=1;whiteSpace=wrap;html=1;absoluteArcSize=1;arcSize=14;strokeWidth=2;fontSize=22;" vertex="1" parent="WIyWlLk6GJQsqaUBKTNV-1">
          <mxGeometry x="204.5" y="702" width="110" height="70" as="geometry" />
        </mxCell>
        <mxCell id="yysBNInqc31UL308aAiy-39" value="True" style="edgeStyle=orthogonalEdgeStyle;rounded=0;orthogonalLoop=1;jettySize=auto;html=1;exitX=0.5;exitY=1;exitDx=0;exitDy=0;exitPerimeter=0;entryX=0.5;entryY=0;entryDx=0;entryDy=0;fontSize=15;" edge="1" parent="WIyWlLk6GJQsqaUBKTNV-1" source="yysBNInqc31UL308aAiy-41" target="yysBNInqc31UL308aAiy-43">
          <mxGeometry y="20" relative="1" as="geometry">
            <mxPoint as="offset" />
          </mxGeometry>
        </mxCell>
        <mxCell id="yysBNInqc31UL308aAiy-40" value="False" style="edgeStyle=orthogonalEdgeStyle;rounded=0;orthogonalLoop=1;jettySize=auto;html=1;exitX=0.5;exitY=0;exitDx=0;exitDy=0;exitPerimeter=0;entryX=0.5;entryY=1;entryDx=0;entryDy=0;fontSize=15;" edge="1" parent="WIyWlLk6GJQsqaUBKTNV-1" source="yysBNInqc31UL308aAiy-41" target="yysBNInqc31UL308aAiy-46">
          <mxGeometry x="-0.3333" y="-22" relative="1" as="geometry">
            <mxPoint as="offset" />
          </mxGeometry>
        </mxCell>
        <mxCell id="yysBNInqc31UL308aAiy-41" value="if index == 0" style="strokeWidth=2;html=1;shape=mxgraph.flowchart.decision;whiteSpace=wrap;fontSize=15;" vertex="1" parent="WIyWlLk6GJQsqaUBKTNV-1">
          <mxGeometry x="84.5" y="687" width="100" height="100" as="geometry" />
        </mxCell>
        <mxCell id="yysBNInqc31UL308aAiy-42" style="edgeStyle=orthogonalEdgeStyle;rounded=0;orthogonalLoop=1;jettySize=auto;html=1;exitX=0.5;exitY=1;exitDx=0;exitDy=0;entryX=0.5;entryY=0;entryDx=0;entryDy=0;fontSize=15;" edge="1" parent="WIyWlLk6GJQsqaUBKTNV-1" source="yysBNInqc31UL308aAiy-43" target="yysBNInqc31UL308aAiy-44">
          <mxGeometry relative="1" as="geometry" />
        </mxCell>
        <mxCell id="yysBNInqc31UL308aAiy-43" value="&lt;font style=&quot;font-size: 15px;&quot;&gt;temp.setNext&lt;br&gt;(first);&lt;br&gt;first = temp;&lt;br&gt;&lt;/font&gt;" style="rounded=1;whiteSpace=wrap;html=1;absoluteArcSize=1;arcSize=14;strokeWidth=2;fontSize=22;" vertex="1" parent="WIyWlLk6GJQsqaUBKTNV-1">
          <mxGeometry x="79.5" y="817" width="110" height="80" as="geometry" />
        </mxCell>
        <mxCell id="yysBNInqc31UL308aAiy-44" value="&lt;font style=&quot;font-size: 15px;&quot;&gt;length++&lt;br&gt;&lt;/font&gt;" style="rounded=1;whiteSpace=wrap;html=1;absoluteArcSize=1;arcSize=14;strokeWidth=2;fontSize=22;" vertex="1" parent="WIyWlLk6GJQsqaUBKTNV-1">
          <mxGeometry x="91" y="937" width="87" height="50" as="geometry" />
        </mxCell>
        <mxCell id="yysBNInqc31UL308aAiy-45" style="edgeStyle=orthogonalEdgeStyle;rounded=0;orthogonalLoop=1;jettySize=auto;html=1;exitX=0;exitY=0.5;exitDx=0;exitDy=0;entryX=0;entryY=0.5;entryDx=0;entryDy=0;fontSize=15;" edge="1" parent="WIyWlLk6GJQsqaUBKTNV-1" source="yysBNInqc31UL308aAiy-46" target="yysBNInqc31UL308aAiy-44">
          <mxGeometry relative="1" as="geometry" />
        </mxCell>
        <mxCell id="yysBNInqc31UL308aAiy-46" value="&lt;font style=&quot;font-size: 15px;&quot;&gt;Node SNode = valueOf(index);&lt;br&gt;temp.setNext(SNode.getNext);&lt;br&gt;SNode.setNext(temp);&lt;br&gt;&lt;/font&gt;" style="rounded=1;whiteSpace=wrap;html=1;absoluteArcSize=1;arcSize=14;strokeWidth=2;fontSize=22;" vertex="1" parent="WIyWlLk6GJQsqaUBKTNV-1">
          <mxGeometry x="80" y="510" width="219" height="105" as="geometry" />
        </mxCell>
        <mxCell id="yysBNInqc31UL308aAiy-47" value="True" style="edgeStyle=orthogonalEdgeStyle;rounded=0;orthogonalLoop=1;jettySize=auto;html=1;exitX=0;exitY=0.5;exitDx=0;exitDy=0;exitPerimeter=0;entryX=1;entryY=0.5;entryDx=0;entryDy=0;entryPerimeter=0;fontSize=15;" edge="1" parent="WIyWlLk6GJQsqaUBKTNV-1" source="yysBNInqc31UL308aAiy-49" target="yysBNInqc31UL308aAiy-54">
          <mxGeometry x="-0.4794" y="-16" relative="1" as="geometry">
            <mxPoint as="offset" />
          </mxGeometry>
        </mxCell>
        <mxCell id="yysBNInqc31UL308aAiy-48" value="False" style="edgeStyle=orthogonalEdgeStyle;rounded=0;orthogonalLoop=1;jettySize=auto;html=1;exitX=0.5;exitY=1;exitDx=0;exitDy=0;exitPerimeter=0;entryX=0.5;entryY=0;entryDx=0;entryDy=0;entryPerimeter=0;fontSize=15;" edge="1" parent="WIyWlLk6GJQsqaUBKTNV-1" source="yysBNInqc31UL308aAiy-49" target="yysBNInqc31UL308aAiy-61">
          <mxGeometry x="-0.1429" y="22" relative="1" as="geometry">
            <mxPoint as="offset" />
          </mxGeometry>
        </mxCell>
        <mxCell id="yysBNInqc31UL308aAiy-49" value="if set swap" style="strokeWidth=2;html=1;shape=mxgraph.flowchart.decision;whiteSpace=wrap;fontSize=15;" vertex="1" parent="WIyWlLk6GJQsqaUBKTNV-1">
          <mxGeometry x="378" y="1045" width="100" height="100" as="geometry" />
        </mxCell>
        <mxCell id="yysBNInqc31UL308aAiy-50" style="edgeStyle=orthogonalEdgeStyle;rounded=0;orthogonalLoop=1;jettySize=auto;html=1;exitX=0.5;exitY=1;exitDx=0;exitDy=0;entryX=0.5;entryY=0;entryDx=0;entryDy=0;entryPerimeter=0;fontSize=15;" edge="1" parent="WIyWlLk6GJQsqaUBKTNV-1" source="yysBNInqc31UL308aAiy-51" target="yysBNInqc31UL308aAiy-29">
          <mxGeometry relative="1" as="geometry" />
        </mxCell>
        <mxCell id="yysBNInqc31UL308aAiy-51" value="&lt;font style=&quot;font-size: 15px;&quot;&gt;length++&lt;br&gt;&lt;/font&gt;" style="rounded=1;whiteSpace=wrap;html=1;absoluteArcSize=1;arcSize=14;strokeWidth=2;fontSize=22;" vertex="1" parent="WIyWlLk6GJQsqaUBKTNV-1">
          <mxGeometry x="550" y="820" width="110" height="70" as="geometry" />
        </mxCell>
        <mxCell id="yysBNInqc31UL308aAiy-52" value="True" style="edgeStyle=orthogonalEdgeStyle;rounded=0;orthogonalLoop=1;jettySize=auto;html=1;exitX=0.5;exitY=1;exitDx=0;exitDy=0;exitPerimeter=0;entryX=0.5;entryY=0;entryDx=0;entryDy=0;fontSize=15;" edge="1" parent="WIyWlLk6GJQsqaUBKTNV-1" source="yysBNInqc31UL308aAiy-54" target="yysBNInqc31UL308aAiy-56">
          <mxGeometry x="0.2" y="18" relative="1" as="geometry">
            <mxPoint as="offset" />
          </mxGeometry>
        </mxCell>
        <mxCell id="yysBNInqc31UL308aAiy-53" value="False" style="edgeStyle=orthogonalEdgeStyle;rounded=0;orthogonalLoop=1;jettySize=auto;html=1;exitX=0;exitY=0.5;exitDx=0;exitDy=0;exitPerimeter=0;entryX=0.5;entryY=0;entryDx=0;entryDy=0;fontSize=15;" edge="1" parent="WIyWlLk6GJQsqaUBKTNV-1" source="yysBNInqc31UL308aAiy-54" target="yysBNInqc31UL308aAiy-58">
          <mxGeometry x="0.125" y="-25" relative="1" as="geometry">
            <mxPoint as="offset" />
          </mxGeometry>
        </mxCell>
        <mxCell id="yysBNInqc31UL308aAiy-54" value="length &amp;gt; index1&lt;br&gt;&amp;amp;&amp;amp; length &amp;gt; index2 &amp;amp;&amp;amp; &lt;br&gt;index1 &amp;gt;= 0 &lt;br&gt;&amp;amp;&amp;amp; index2 &amp;gt;= 0" style="strokeWidth=2;html=1;shape=mxgraph.flowchart.decision;whiteSpace=wrap;fontSize=15;" vertex="1" parent="WIyWlLk6GJQsqaUBKTNV-1">
          <mxGeometry x="158" y="1025" width="203" height="140" as="geometry" />
        </mxCell>
        <mxCell id="yysBNInqc31UL308aAiy-55" style="edgeStyle=orthogonalEdgeStyle;rounded=0;orthogonalLoop=1;jettySize=auto;html=1;exitX=0.5;exitY=1;exitDx=0;exitDy=0;entryX=0.5;entryY=0;entryDx=0;entryDy=0;fontSize=15;" edge="1" parent="WIyWlLk6GJQsqaUBKTNV-1" source="yysBNInqc31UL308aAiy-56" target="yysBNInqc31UL308aAiy-75">
          <mxGeometry relative="1" as="geometry">
            <Array as="points">
              <mxPoint x="283" y="1640" />
              <mxPoint x="428" y="1640" />
            </Array>
          </mxGeometry>
        </mxCell>
        <mxCell id="yysBNInqc31UL308aAiy-56" value="&lt;font style=&quot;font-size: 15px;&quot;&gt;insert(index1)&lt;br&gt;delete(index1+1)&lt;br&gt;insert(index2)&lt;br&gt;delete(index2+1)&lt;br&gt;&lt;/font&gt;" style="rounded=1;whiteSpace=wrap;html=1;absoluteArcSize=1;arcSize=14;strokeWidth=2;fontSize=22;" vertex="1" parent="WIyWlLk6GJQsqaUBKTNV-1">
          <mxGeometry x="218" y="1220" width="130" height="110" as="geometry" />
        </mxCell>
        <mxCell id="yysBNInqc31UL308aAiy-57" style="edgeStyle=orthogonalEdgeStyle;rounded=0;orthogonalLoop=1;jettySize=auto;html=1;exitX=0.5;exitY=1;exitDx=0;exitDy=0;entryX=0.5;entryY=0;entryDx=0;entryDy=0;fontSize=15;" edge="1" parent="WIyWlLk6GJQsqaUBKTNV-1" source="yysBNInqc31UL308aAiy-58" target="yysBNInqc31UL308aAiy-75">
          <mxGeometry relative="1" as="geometry">
            <Array as="points">
              <mxPoint x="133" y="1640" />
              <mxPoint x="428" y="1640" />
            </Array>
          </mxGeometry>
        </mxCell>
        <mxCell id="yysBNInqc31UL308aAiy-58" value="&lt;span style=&quot;font-size: 15px;&quot;&gt;print &quot;Index out &lt;br&gt;of range&quot;&lt;/span&gt;" style="shape=parallelogram;html=1;strokeWidth=2;perimeter=parallelogramPerimeter;whiteSpace=wrap;rounded=1;arcSize=12;size=0.23;fontSize=22;" vertex="1" parent="WIyWlLk6GJQsqaUBKTNV-1">
          <mxGeometry x="48" y="1180" width="170" height="60" as="geometry" />
        </mxCell>
        <mxCell id="yysBNInqc31UL308aAiy-59" value="True" style="edgeStyle=orthogonalEdgeStyle;rounded=0;orthogonalLoop=1;jettySize=auto;html=1;exitX=1;exitY=0.5;exitDx=0;exitDy=0;exitPerimeter=0;entryX=0;entryY=0.5;entryDx=0;entryDy=0;entryPerimeter=0;fontSize=15;" edge="1" parent="WIyWlLk6GJQsqaUBKTNV-1" source="yysBNInqc31UL308aAiy-61" target="yysBNInqc31UL308aAiy-64">
          <mxGeometry x="-0.0638" y="10" relative="1" as="geometry">
            <mxPoint as="offset" />
          </mxGeometry>
        </mxCell>
        <mxCell id="yysBNInqc31UL308aAiy-60" value="False" style="edgeStyle=orthogonalEdgeStyle;rounded=0;orthogonalLoop=1;jettySize=auto;html=1;exitX=0.5;exitY=1;exitDx=0;exitDy=0;exitPerimeter=0;entryX=0.5;entryY=0;entryDx=0;entryDy=0;fontSize=15;" edge="1" parent="WIyWlLk6GJQsqaUBKTNV-1" source="yysBNInqc31UL308aAiy-61" target="yysBNInqc31UL308aAiy-75">
          <mxGeometry x="-0.7368" y="-28" relative="1" as="geometry">
            <mxPoint as="offset" />
          </mxGeometry>
        </mxCell>
        <mxCell id="yysBNInqc31UL308aAiy-61" value="if set remove" style="strokeWidth=2;html=1;shape=mxgraph.flowchart.decision;whiteSpace=wrap;fontSize=15;" vertex="1" parent="WIyWlLk6GJQsqaUBKTNV-1">
          <mxGeometry x="378" y="1210" width="100" height="100" as="geometry" />
        </mxCell>
        <mxCell id="yysBNInqc31UL308aAiy-62" value="False" style="edgeStyle=orthogonalEdgeStyle;rounded=0;orthogonalLoop=1;jettySize=auto;html=1;exitX=1;exitY=0.5;exitDx=0;exitDy=0;exitPerimeter=0;entryX=0.5;entryY=0;entryDx=0;entryDy=0;fontSize=15;" edge="1" parent="WIyWlLk6GJQsqaUBKTNV-1" source="yysBNInqc31UL308aAiy-64" target="yysBNInqc31UL308aAiy-65">
          <mxGeometry x="-0.0534" y="20" relative="1" as="geometry">
            <mxPoint as="offset" />
          </mxGeometry>
        </mxCell>
        <mxCell id="yysBNInqc31UL308aAiy-63" value="True" style="edgeStyle=orthogonalEdgeStyle;rounded=0;orthogonalLoop=1;jettySize=auto;html=1;exitX=0.5;exitY=1;exitDx=0;exitDy=0;exitPerimeter=0;entryX=0.5;entryY=0;entryDx=0;entryDy=0;entryPerimeter=0;fontSize=15;" edge="1" parent="WIyWlLk6GJQsqaUBKTNV-1" source="yysBNInqc31UL308aAiy-64" target="yysBNInqc31UL308aAiy-68">
          <mxGeometry x="0.2" y="-22" relative="1" as="geometry">
            <mxPoint as="offset" />
          </mxGeometry>
        </mxCell>
        <mxCell id="yysBNInqc31UL308aAiy-64" value="index &amp;gt; length&lt;br&gt;|| index &amp;lt; 0" style="strokeWidth=2;html=1;shape=mxgraph.flowchart.decision;whiteSpace=wrap;fontSize=15;" vertex="1" parent="WIyWlLk6GJQsqaUBKTNV-1">
          <mxGeometry x="540" y="1210" width="125" height="100" as="geometry" />
        </mxCell>
        <mxCell id="yysBNInqc31UL308aAiy-65" value="&lt;span style=&quot;font-size: 15px;&quot;&gt;Print &quot;Data yang &lt;br&gt;dihapus tidak ada&quot;&lt;/span&gt;" style="shape=parallelogram;html=1;strokeWidth=2;perimeter=parallelogramPerimeter;whiteSpace=wrap;rounded=1;arcSize=12;size=0.23;fontSize=22;" vertex="1" parent="WIyWlLk6GJQsqaUBKTNV-1">
          <mxGeometry x="600" y="1310" width="190" height="60" as="geometry" />
        </mxCell>
        <mxCell id="yysBNInqc31UL308aAiy-66" value="True" style="edgeStyle=orthogonalEdgeStyle;rounded=0;orthogonalLoop=1;jettySize=auto;html=1;exitX=1;exitY=0.5;exitDx=0;exitDy=0;exitPerimeter=0;entryX=0.5;entryY=0;entryDx=0;entryDy=0;fontSize=15;" edge="1" parent="WIyWlLk6GJQsqaUBKTNV-1" source="yysBNInqc31UL308aAiy-68" target="yysBNInqc31UL308aAiy-70">
          <mxGeometry x="-0.6471" y="20" relative="1" as="geometry">
            <mxPoint as="offset" />
          </mxGeometry>
        </mxCell>
        <mxCell id="yysBNInqc31UL308aAiy-67" value="False" style="edgeStyle=orthogonalEdgeStyle;rounded=0;orthogonalLoop=1;jettySize=auto;html=1;exitX=0.5;exitY=1;exitDx=0;exitDy=0;exitPerimeter=0;entryX=0.5;entryY=0;entryDx=0;entryDy=0;fontSize=15;" edge="1" parent="WIyWlLk6GJQsqaUBKTNV-1" source="yysBNInqc31UL308aAiy-68" target="yysBNInqc31UL308aAiy-72">
          <mxGeometry x="0.1809" y="21" relative="1" as="geometry">
            <Array as="points">
              <mxPoint x="503" y="1460" />
              <mxPoint x="521" y="1460" />
            </Array>
            <mxPoint x="-2" y="-10" as="offset" />
          </mxGeometry>
        </mxCell>
        <mxCell id="yysBNInqc31UL308aAiy-68" value="index == 0" style="strokeWidth=2;html=1;shape=mxgraph.flowchart.decision;whiteSpace=wrap;fontSize=15;" vertex="1" parent="WIyWlLk6GJQsqaUBKTNV-1">
          <mxGeometry x="440" y="1350" width="125" height="100" as="geometry" />
        </mxCell>
        <mxCell id="yysBNInqc31UL308aAiy-69" style="edgeStyle=orthogonalEdgeStyle;rounded=0;orthogonalLoop=1;jettySize=auto;html=1;exitX=0.5;exitY=1;exitDx=0;exitDy=0;entryX=0.5;entryY=0;entryDx=0;entryDy=0;fontSize=15;" edge="1" parent="WIyWlLk6GJQsqaUBKTNV-1" source="yysBNInqc31UL308aAiy-70" target="yysBNInqc31UL308aAiy-75">
          <mxGeometry relative="1" as="geometry">
            <Array as="points">
              <mxPoint x="695" y="1640" />
              <mxPoint x="428" y="1640" />
            </Array>
          </mxGeometry>
        </mxCell>
        <mxCell id="yysBNInqc31UL308aAiy-70" value="&lt;font style=&quot;font-size: 15px;&quot;&gt;temp = temp.getNext();&lt;br&gt;first = temp;&lt;br&gt;&lt;/font&gt;" style="rounded=1;whiteSpace=wrap;html=1;absoluteArcSize=1;arcSize=14;strokeWidth=2;fontSize=22;" vertex="1" parent="WIyWlLk6GJQsqaUBKTNV-1">
          <mxGeometry x="630" y="1460" width="130" height="110" as="geometry" />
        </mxCell>
        <mxCell id="yysBNInqc31UL308aAiy-71" style="edgeStyle=orthogonalEdgeStyle;rounded=0;orthogonalLoop=1;jettySize=auto;html=1;exitX=0.5;exitY=1;exitDx=0;exitDy=0;entryX=0.5;entryY=0;entryDx=0;entryDy=0;fontSize=15;" edge="1" parent="WIyWlLk6GJQsqaUBKTNV-1" source="yysBNInqc31UL308aAiy-72" target="yysBNInqc31UL308aAiy-75">
          <mxGeometry relative="1" as="geometry">
            <Array as="points">
              <mxPoint x="521" y="1640" />
              <mxPoint x="428" y="1640" />
            </Array>
          </mxGeometry>
        </mxCell>
        <mxCell id="yysBNInqc31UL308aAiy-72" value="&lt;font style=&quot;&quot;&gt;&lt;span style=&quot;font-size: 15px;&quot;&gt;temp.value.setNext&lt;br&gt;(temp.getNext().&lt;br&gt;getNext())&lt;/span&gt;&lt;br&gt;&lt;/font&gt;" style="rounded=1;whiteSpace=wrap;html=1;absoluteArcSize=1;arcSize=14;strokeWidth=2;fontSize=22;" vertex="1" parent="WIyWlLk6GJQsqaUBKTNV-1">
          <mxGeometry x="450" y="1480" width="142.5" height="90" as="geometry" />
        </mxCell>
        <mxCell id="yysBNInqc31UL308aAiy-73" value="&lt;span style=&quot;font-size: 15px;&quot;&gt;STOP&lt;/span&gt;" style="strokeWidth=2;html=1;shape=mxgraph.flowchart.terminator;whiteSpace=wrap;fontSize=22;" vertex="1" parent="WIyWlLk6GJQsqaUBKTNV-1">
          <mxGeometry x="369.25" y="1810" width="117.5" height="50" as="geometry" />
        </mxCell>
        <mxCell id="yysBNInqc31UL308aAiy-74" style="edgeStyle=orthogonalEdgeStyle;rounded=0;orthogonalLoop=1;jettySize=auto;html=1;exitX=0.5;exitY=1;exitDx=0;exitDy=0;entryX=0.5;entryY=0;entryDx=0;entryDy=0;entryPerimeter=0;fontSize=15;" edge="1" parent="WIyWlLk6GJQsqaUBKTNV-1" source="yysBNInqc31UL308aAiy-75" target="yysBNInqc31UL308aAiy-73">
          <mxGeometry relative="1" as="geometry" />
        </mxCell>
        <mxCell id="yysBNInqc31UL308aAiy-75" value="&lt;span style=&quot;font-size: 15px;&quot;&gt;Print first&lt;/span&gt;" style="shape=parallelogram;html=1;strokeWidth=2;perimeter=parallelogramPerimeter;whiteSpace=wrap;rounded=1;arcSize=12;size=0.23;fontSize=22;" vertex="1" parent="WIyWlLk6GJQsqaUBKTNV-1">
          <mxGeometry x="333" y="1690" width="190" height="60" as="geometry" />
        </mxCell>
      </root>
    </mxGraphModel>
  </diagram>
</mxfile>
